<?xml version="1.0" encoding="iso-8859-1"?>
<!-- Generator: Adobe Illustrator 17.0.0, SVG Export Plug-In . SVG Version: 6.00 Build 0)  -->
<!DOCTYPE svg PUBLIC "-//W3C//DTD SVG 1.1//EN" "http://www.w3.org/Graphics/SVG/1.1/DTD/svg11.dtd">
<svg version="1.1" id="Capa_1" xmlns="http://www.w3.org/2000/svg" xmlns:xlink="http://www.w3.org/1999/xlink" x="0px" y="0px"
	 width="64px" height="64px" viewBox="0 0 64 64" style="enable-background:new 0 0 64 64;" xml:space="preserve">
<g>
	<path d="M62.217,26.195l-0.595,3.562l-0.595-3.823l-0.595,2.606l-0.397-2.085l-0.463,0.174L58.977,5.779l-0.529,21.806
		l-0.529-0.869l-0.463,2.346l-0.397-1.738l-0.661,2.346l-0.859-3.909v4.865l-0.661-2.78l-0.727,0.956v-1.738l-0.595,0.348
		L52.895,4.737L52.498,26.63l-0.661,0.087l-0.397,3.736l-0.397-3.475L50.713,30.8l-0.397-3.041l-0.529,2.259L49.06,10.992
		l-0.264,15.725L48.2,25.5v4.431l-0.397-3.128l-0.397,3.562l-0.397-4.518l-0.463,3.823l-0.463-2.259l-0.529,2.085l-0.397-1.738
		l-0.397,1.998L44.299,8.907l-0.331,15.29l-0.595-3.996l-0.331,9.122l-0.397-2.085l-0.397,1.477l-0.397-2.259l-0.661,2.519
		l-0.331-2.519l-0.595,4.778l-0.463-15.899L39.274,26.89l-0.529-0.608l-0.595,3.909l-0.463-4.344l-0.331,3.041l-0.397-3.128
		l-0.397,2.172l-0.331-1.216l-0.529,2.954v-4.083l-0.661,2.085V23.85l-0.397,1.043L34.249,8.299L33.588,29.67l-0.397-2.606
		l-0.331,1.738l-0.397-2.606l-0.463,3.041l-0.331-1.651l-0.529,3.562l-0.463-14.248L30.15,29.236l-0.661-2.867l-0.331,1.303
		l-0.463-1.477L28.233,30.8l-0.397-3.128l-0.463,1.824l-0.397-3.301l-0.331,2.867L26.117,25.5l-0.529,3.823L25.257,8.038
		l-0.463,21.459l-0.529-3.475l-0.264,2.693l-0.331-1.39l-0.529,1.564L22.745,25.5l-0.397,3.475l-0.264-4.083l-0.595,5.734
		L21.092,8.472l-0.463,23.457l-0.397-4.518l-0.265,1.39l-0.331-2.433l-0.397,1.824l-0.265-1.651l-0.397,0.782l-0.397-2.172
		l-0.264,4.952l-0.331-2.085l-0.529,0.869l-0.331-2.346l-0.529,1.824l-0.463-15.204l-0.463,17.202l-0.463-2.867l-0.397,1.651V25.5
		c0,0-0.529,3.823-0.529,4.083c0,0.261-0.463-1.911-0.463-1.911l-0.397,1.911l-0.331-1.477l-0.397,1.651l-0.727-17.462
		l-0.463,18.679l-0.397-5.039l-0.397,3.562l-0.397-2.78c0,0-0.331,2.519-0.331,2.954s-0.529-2.606-0.529-2.606
		s-0.397,2.172-0.397,2.606s-0.397-4.778-0.397-4.778L7.604,29.67v-4.083l-0.463,5.908V7.517L6.414,30.539l-0.331-3.128L5.62,29.323
		l-0.397-1.824L4.695,29.41v-2.172l-0.727,1.738v-2.519l-0.463,2.432L3.24,26.282l-0.529,3.823L2.381,11.339L1.984,29.453
		l-0.331-1.607L1.38,31.06v1.043v0.261v1.564l0.661-0.521l0.066,4.865l0.595-3.562l0.595,3.823l0.595-2.606l0.397,2.085l0.463-0.174
		l0.595,20.851l0.529-21.806l0.529,0.869l0.463-2.346l0.397,1.738l0.661-2.346l0.86,3.909v-4.865l0.661,2.78l0.727-0.956v1.738
		l0.595-0.347L11.43,59.73l0.397-21.893l0.661-0.087l0.397-3.736l0.397,3.475l0.331-3.823l0.397,3.041l0.529-2.259l0.727,19.026
		L15.53,37.75l0.595,1.216v-4.431l0.397,3.128l0.397-3.562l0.397,4.518l0.463-3.823l0.463,2.259l0.529-2.085l0.397,1.738
		l0.397-1.998l0.463,20.851l0.331-11.381l0.595,1.39l0.331-10.425l0.397,2.085l0.397-1.477l0.397,2.259l0.661-2.519l0.331,2.519
		l0.595-4.778l0.463,15.899l0.529-11.555l0.529,0.608l0.595-3.909l0.463,4.344l0.331-3.041l0.397,3.128l0.397-2.172l0.331,1.216
		l0.529-2.954v4.083l0.661-2.085v3.823l0.397-1.042l0.397,16.594l0.661-21.372l0.397,2.606l0.331-1.738l0.397,2.606l0.463-3.041
		l0.331,1.651l0.529-3.562l0.463,14.248l0.529-12.337l0.661,2.867l0.331-1.303l0.463,1.477l0.463-4.604l0.397,3.128l0.463-1.824
		l0.397,3.301l0.331-2.867l0.529,3.562l0.529-3.823l0.331,21.285l0.463-21.459l0.529,3.475l0.264-2.693l0.331,1.39l0.529-1.564
		l0.397,3.388l0.397-3.475l0.264,4.083l0.595-5.734l0.397,22.154l0.463-23.457l0.397,4.518l0.264-1.39l0.331,2.433l0.397-1.824
		l0.264,1.651l0.397-0.782l0.397,2.172l0.264-4.952l0.331,2.085l0.529-0.869l0.331,2.346l0.529-1.824l0.463,15.204l0.463-17.202
		l0.463,2.867l0.397-1.651v3.649c0,0,0.529-3.823,0.529-4.083c0-0.261,0.463,1.911,0.463,1.911l0.397-1.911l0.331,1.477l0.397-1.651
		l0.727,17.462l0.463-18.679l0.397,5.039l0.397-3.562l0.397,2.78c0,0,0.331-2.519,0.331-2.954s0.529,2.606,0.529,2.606
		s0.397-2.172,0.397-2.606s0.397,4.778,0.397,4.778l0.661-4.778v4.083l0.463-5.908V56.95l0.727-23.023l0.331,3.128l0.463-1.911
		l0.397,1.824l0.529-1.911v2.172l0.727-1.738v2.519l0.463-2.433l0.264,2.606l0.529-3.823l0.331,18.766l0.397-18.114l0.331,1.607
		l0.273-3.214v-1.042v-0.261v-1.564l-0.661,0.521L62.217,26.195z"/>
</g>
</svg>
